<svg xmlns="http://www.w3.org/2000/svg" xmlns:xlink="http://www.w3.org/1999/xlink" version="1.1" width="256" height="256" viewBox="0 0 256 256" xml:space="preserve">

<defs>
</defs>
<g style="stroke: none; stroke-width: 0; stroke-dasharray: none; stroke-linecap: butt; stroke-linejoin: miter; stroke-miterlimit: 10; fill: none; fill-rule: nonzero; opacity: 1;" transform="translate(1.4065934065934016 1.4065934065934016) scale(2.81 2.81)" >
	<path d="M 44.63 70.618 H 6.737 C 3.022 70.618 0 67.597 0 63.882 V 26.128 c 0 -3.715 3.022 -6.737 6.737 -6.737 h 46.666 c 1.104 0 2 0.896 2 2 s -0.896 2 -2 2 H 6.737 C 5.228 23.391 4 24.619 4 26.128 v 37.754 c 0 1.509 1.228 2.736 2.737 2.736 H 44.63 c 1.104 0 2 0.896 2 2 S 45.735 70.618 44.63 70.618 z" style="stroke: none; stroke-width: 1; stroke-dasharray: none; stroke-linecap: butt; stroke-linejoin: miter; stroke-miterlimit: 10; fill: rgb(0,0,0); fill-rule: nonzero; opacity: 1;" transform=" matrix(1 0 0 1 0 0) " stroke-linecap="round" />
	<path d="M 53.402 70.618 H 44.63 c -1.104 0 -2 -0.896 -2 -2 s 0.896 -2 2 -2 h 8.772 c 1.104 0 2 0.896 2 2 S 54.507 70.618 53.402 70.618 z" style="stroke: none; stroke-width: 1; stroke-dasharray: none; stroke-linecap: butt; stroke-linejoin: miter; stroke-miterlimit: 10; fill: rgb(0,0,0); fill-rule: nonzero; opacity: 1;" transform=" matrix(1 0 0 1 0 0) " stroke-linecap="round" />
	<path d="M 46.952 78.339 H 26.287 c -1.104 0 -2 -0.896 -2 -2 s 0.896 -2 2 -2 h 20.666 c 1.104 0 2 0.896 2 2 S 48.057 78.339 46.952 78.339 z" style="stroke: none; stroke-width: 1; stroke-dasharray: none; stroke-linecap: butt; stroke-linejoin: miter; stroke-miterlimit: 10; fill: rgb(0,0,0); fill-rule: nonzero; opacity: 1;" transform=" matrix(1 0 0 1 0 0) " stroke-linecap="round" />
	<path d="M 83.054 78.339 h -17.31 c -3.83 0 -6.946 -3.116 -6.946 -6.946 V 18.607 c 0 -3.83 3.116 -6.946 6.946 -6.946 h 17.31 c 3.83 0 6.946 3.116 6.946 6.946 v 52.786 C 90 75.223 86.884 78.339 83.054 78.339 z M 65.744 15.661 c -1.625 0 -2.946 1.321 -2.946 2.946 v 52.786 c 0 1.625 1.321 2.946 2.946 2.946 h 17.31 c 1.625 0 2.946 -1.321 2.946 -2.946 V 18.607 c 0 -1.625 -1.321 -2.946 -2.946 -2.946 H 65.744 z" style="stroke: none; stroke-width: 1; stroke-dasharray: none; stroke-linecap: butt; stroke-linejoin: miter; stroke-miterlimit: 10; fill: rgb(0,0,0); fill-rule: nonzero; opacity: 1;" transform=" matrix(1 0 0 1 0 0) " stroke-linecap="round" />
	<path d="M 36.62 78.339 c -1.104 0 -2 -0.896 -2 -2 v -7.721 c 0 -1.104 0.896 -2 2 -2 s 2 0.896 2 2 v 7.721 C 38.62 77.443 37.724 78.339 36.62 78.339 z" style="stroke: none; stroke-width: 1; stroke-dasharray: none; stroke-linecap: butt; stroke-linejoin: miter; stroke-miterlimit: 10; fill: rgb(0,0,0); fill-rule: nonzero; opacity: 1;" transform=" matrix(1 0 0 1 0 0) " stroke-linecap="round" />
	<path d="M 88 32.61 H 60.798 c -1.104 0 -2 -0.896 -2 -2 s 0.896 -2 2 -2 H 88 c 1.104 0 2 0.896 2 2 S 89.104 32.61 88 32.61 z" style="stroke: none; stroke-width: 1; stroke-dasharray: none; stroke-linecap: butt; stroke-linejoin: miter; stroke-miterlimit: 10; fill: rgb(0,0,0); fill-rule: nonzero; opacity: 1;" transform=" matrix(1 0 0 1 0 0) " stroke-linecap="round" />
	<path d="M 88 23.922 H 60.798 c -1.104 0 -2 -0.896 -2 -2 s 0.896 -2 2 -2 H 88 c 1.104 0 2 0.896 2 2 S 89.104 23.922 88 23.922 z" style="stroke: none; stroke-width: 1; stroke-dasharray: none; stroke-linecap: butt; stroke-linejoin: miter; stroke-miterlimit: 10; fill: rgb(0,0,0); fill-rule: nonzero; opacity: 1;" transform=" matrix(1 0 0 1 0 0) " stroke-linecap="round" />
	<path d="M 82.947 40.412 h -4.121 c -1.104 0 -2 -0.896 -2 -2 s 0.896 -2 2 -2 h 4.121 c 1.104 0 2 0.896 2 2 S 84.052 40.412 82.947 40.412 z" style="stroke: none; stroke-width: 1; stroke-dasharray: none; stroke-linecap: butt; stroke-linejoin: miter; stroke-miterlimit: 10; fill: rgb(0,0,0); fill-rule: nonzero; opacity: 1;" transform=" matrix(1 0 0 1 0 0) " stroke-linecap="round" />
	<path d="M 403.461 491.916 h 4.354 v 0.876 h -3.311 v 2.687 h 3.059 v 0.863 h -3.059 V 500 h -1.043 V 491.916 z" style="stroke: none; stroke-width: 1; stroke-dasharray: none; stroke-linecap: butt; stroke-linejoin: miter; stroke-miterlimit: 10; fill: rgb(0,0,0); fill-rule: nonzero; opacity: 1;" transform=" matrix(1 0 0 1 0 0) " stroke-linecap="round" />
	<path d="M 408.957 496.006 c 0 -0.684 -0.013 -1.271 -0.049 -1.811 h 0.924 l 0.036 1.139 h 0.048 c 0.264 -0.779 0.899 -1.271 1.607 -1.271 c 0.119 0 0.203 0.012 0.3 0.036 v 0.995 c -0.108 -0.024 -0.216 -0.036 -0.36 -0.036 c -0.743 0 -1.271 0.564 -1.415 1.355 c -0.024 0.145 -0.048 0.312 -0.048 0.492 V 500 h -1.043 V 496.006 z" style="stroke: none; stroke-width: 1; stroke-dasharray: none; stroke-linecap: butt; stroke-linejoin: miter; stroke-miterlimit: 10; fill: rgb(0,0,0); fill-rule: nonzero; opacity: 1;" transform=" matrix(1 0 0 1 0 0) " stroke-linecap="round" />
	<path d="M 413.348 497.289 c 0.024 1.428 0.936 2.016 1.991 2.016 c 0.755 0 1.212 -0.133 1.606 -0.301 l 0.181 0.756 c -0.372 0.168 -1.007 0.36 -1.931 0.36 c -1.787 0 -2.855 -1.176 -2.855 -2.927 s 1.032 -3.13 2.723 -3.13 c 1.896 0 2.399 1.667 2.399 2.734 c 0 0.216 -0.024 0.384 -0.036 0.491 H 413.348 z M 416.442 496.533 c 0.012 -0.671 -0.276 -1.715 -1.464 -1.715 c -1.066 0 -1.535 0.984 -1.619 1.715 H 416.442 z" style="stroke: none; stroke-width: 1; stroke-dasharray: none; stroke-linecap: butt; stroke-linejoin: miter; stroke-miterlimit: 10; fill: rgb(0,0,0); fill-rule: nonzero; opacity: 1;" transform=" matrix(1 0 0 1 0 0) " stroke-linecap="round" />
	<path d="M 419.36 497.289 c 0.024 1.428 0.936 2.016 1.991 2.016 c 0.755 0 1.211 -0.133 1.606 -0.301 l 0.181 0.756 c -0.373 0.168 -1.008 0.36 -1.932 0.36 c -1.787 0 -2.854 -1.176 -2.854 -2.927 s 1.032 -3.13 2.723 -3.13 c 1.896 0 2.399 1.667 2.399 2.734 c 0 0.216 -0.025 0.384 -0.037 0.491 H 419.36 z M 422.455 496.533 c 0.012 -0.671 -0.276 -1.715 -1.464 -1.715 c -1.067 0 -1.535 0.984 -1.619 1.715 H 422.455 z" style="stroke: none; stroke-width: 1; stroke-dasharray: none; stroke-linecap: butt; stroke-linejoin: miter; stroke-miterlimit: 10; fill: rgb(0,0,0); fill-rule: nonzero; opacity: 1;" transform=" matrix(1 0 0 1 0 0) " stroke-linecap="round" />
	<path d="M 428.408 491.916 V 500 h -1.044 v -8.084 H 428.408 z" style="stroke: none; stroke-width: 1; stroke-dasharray: none; stroke-linecap: butt; stroke-linejoin: miter; stroke-miterlimit: 10; fill: rgb(0,0,0); fill-rule: nonzero; opacity: 1;" transform=" matrix(1 0 0 1 0 0) " stroke-linecap="round" />
	<path d="M 434.334 499.784 c -0.275 0.144 -0.888 0.336 -1.667 0.336 c -1.751 0 -2.891 -1.188 -2.891 -2.962 c 0 -1.787 1.224 -3.083 3.118 -3.083 c 0.624 0 1.176 0.155 1.463 0.3 l -0.239 0.815 c -0.252 -0.144 -0.647 -0.275 -1.224 -0.275 c -1.331 0 -2.051 0.983 -2.051 2.194 c 0 1.344 0.863 2.171 2.016 2.171 c 0.6 0 0.995 -0.155 1.295 -0.288 L 434.334 499.784 z" style="stroke: none; stroke-width: 1; stroke-dasharray: none; stroke-linecap: butt; stroke-linejoin: miter; stroke-miterlimit: 10; fill: rgb(0,0,0); fill-rule: nonzero; opacity: 1;" transform=" matrix(1 0 0 1 0 0) " stroke-linecap="round" />
	<path d="M 440.753 497.05 c 0 2.146 -1.487 3.082 -2.89 3.082 c -1.572 0 -2.783 -1.151 -2.783 -2.986 c 0 -1.942 1.271 -3.082 2.879 -3.082 C 439.626 494.063 440.753 495.274 440.753 497.05 z M 436.147 497.109 c 0 1.271 0.731 2.23 1.763 2.23 c 1.008 0 1.764 -0.947 1.764 -2.254 c 0 -0.984 -0.492 -2.23 -1.739 -2.23 S 436.147 496.006 436.147 497.109 z" style="stroke: none; stroke-width: 1; stroke-dasharray: none; stroke-linecap: butt; stroke-linejoin: miter; stroke-miterlimit: 10; fill: rgb(0,0,0); fill-rule: nonzero; opacity: 1;" transform=" matrix(1 0 0 1 0 0) " stroke-linecap="round" />
	<path d="M 442.088 495.766 c 0 -0.6 -0.012 -1.091 -0.047 -1.57 h 0.936 l 0.06 0.959 h 0.024 c 0.287 -0.551 0.959 -1.091 1.918 -1.091 c 0.804 0 2.051 0.479 2.051 2.47 V 500 h -1.055 v -3.346 c 0 -0.936 -0.348 -1.715 -1.344 -1.715 c -0.695 0 -1.235 0.491 -1.415 1.078 c -0.048 0.133 -0.071 0.313 -0.071 0.492 V 500 h -1.057 V 495.766 z" style="stroke: none; stroke-width: 1; stroke-dasharray: none; stroke-linecap: butt; stroke-linejoin: miter; stroke-miterlimit: 10; fill: rgb(0,0,0); fill-rule: nonzero; opacity: 1;" transform=" matrix(1 0 0 1 0 0) " stroke-linecap="round" />
	<path d="M 448.604 498.92 c 0.313 0.205 0.864 0.42 1.393 0.42 c 0.768 0 1.127 -0.383 1.127 -0.863 c 0 -0.504 -0.301 -0.779 -1.08 -1.067 c -1.043 -0.372 -1.535 -0.947 -1.535 -1.644 c 0 -0.935 0.756 -1.702 2.004 -1.702 c 0.587 0 1.103 0.167 1.427 0.359 l -0.265 0.768 c -0.227 -0.144 -0.646 -0.335 -1.187 -0.335 c -0.624 0 -0.972 0.359 -0.972 0.791 c 0 0.479 0.348 0.695 1.104 0.983 c 1.008 0.384 1.523 0.888 1.523 1.751 c 0 1.02 -0.792 1.739 -2.172 1.739 c -0.635 0 -1.223 -0.156 -1.631 -0.396 L 448.604 498.92 z" style="stroke: none; stroke-width: 1; stroke-dasharray: none; stroke-linecap: butt; stroke-linejoin: miter; stroke-miterlimit: 10; fill: rgb(0,0,0); fill-rule: nonzero; opacity: 1;" transform=" matrix(1 0 0 1 0 0) " stroke-linecap="round" />
	<path d="M 456.08 491.916 h 4.354 v 0.876 h -3.311 v 2.687 h 3.059 v 0.863 h -3.059 V 500 h -1.043 V 491.916 z" style="stroke: none; stroke-width: 1; stroke-dasharray: none; stroke-linecap: butt; stroke-linejoin: miter; stroke-miterlimit: 10; fill: rgb(0,0,0); fill-rule: nonzero; opacity: 1;" transform=" matrix(1 0 0 1 0 0) " stroke-linecap="round" />
	<path d="M 466.77 497.05 c 0 2.146 -1.487 3.082 -2.891 3.082 c -1.571 0 -2.783 -1.151 -2.783 -2.986 c 0 -1.942 1.271 -3.082 2.879 -3.082 C 465.643 494.063 466.77 495.274 466.77 497.05 z M 462.164 497.109 c 0 1.271 0.731 2.23 1.763 2.23 c 1.007 0 1.763 -0.947 1.763 -2.254 c 0 -0.984 -0.491 -2.23 -1.738 -2.23 C 462.703 494.855 462.164 496.006 462.164 497.109 z" style="stroke: none; stroke-width: 1; stroke-dasharray: none; stroke-linecap: butt; stroke-linejoin: miter; stroke-miterlimit: 10; fill: rgb(0,0,0); fill-rule: nonzero; opacity: 1;" transform=" matrix(1 0 0 1 0 0) " stroke-linecap="round" />
	<path d="M 468.104 496.006 c 0 -0.684 -0.012 -1.271 -0.047 -1.811 h 0.923 l 0.036 1.139 h 0.048 c 0.264 -0.779 0.899 -1.271 1.606 -1.271 c 0.121 0 0.205 0.012 0.301 0.036 v 0.995 c -0.108 -0.024 -0.217 -0.036 -0.359 -0.036 c -0.744 0 -1.271 0.564 -1.416 1.355 c -0.023 0.145 -0.048 0.312 -0.048 0.492 V 500 h -1.044 V 496.006 z" style="stroke: none; stroke-width: 1; stroke-dasharray: none; stroke-linecap: butt; stroke-linejoin: miter; stroke-miterlimit: 10; fill: rgb(0,0,0); fill-rule: nonzero; opacity: 1;" transform=" matrix(1 0 0 1 0 0) " stroke-linecap="round" />
	<path d="M 474.607 492.012 c 0.504 -0.084 1.164 -0.155 2.004 -0.155 c 1.031 0 1.786 0.239 2.266 0.672 c 0.444 0.384 0.708 0.972 0.708 1.69 c 0 0.732 -0.216 1.308 -0.624 1.728 c -0.551 0.587 -1.451 0.888 -2.471 0.888 c -0.312 0 -0.6 -0.012 -0.839 -0.072 V 500 h -1.044 V 492.012 z M 475.651 495.91 c 0.228 0.061 0.516 0.084 0.863 0.084 c 1.259 0 2.026 -0.611 2.026 -1.727 c 0 -1.068 -0.755 -1.584 -1.906 -1.584 c -0.456 0 -0.804 0.037 -0.983 0.084 V 495.91 z" style="stroke: none; stroke-width: 1; stroke-dasharray: none; stroke-linecap: butt; stroke-linejoin: miter; stroke-miterlimit: 10; fill: rgb(0,0,0); fill-rule: nonzero; opacity: 1;" transform=" matrix(1 0 0 1 0 0) " stroke-linecap="round" />
	<path d="M 485.908 497.05 c 0 2.146 -1.486 3.082 -2.89 3.082 c -1.571 0 -2.782 -1.151 -2.782 -2.986 c 0 -1.942 1.271 -3.082 2.878 -3.082 C 484.781 494.063 485.908 495.274 485.908 497.05 z M 481.303 497.109 c 0 1.271 0.732 2.23 1.764 2.23 c 1.008 0 1.764 -0.947 1.764 -2.254 c 0 -0.984 -0.492 -2.23 -1.74 -2.23 C 481.844 494.855 481.303 496.006 481.303 497.109 z" style="stroke: none; stroke-width: 1; stroke-dasharray: none; stroke-linecap: butt; stroke-linejoin: miter; stroke-miterlimit: 10; fill: rgb(0,0,0); fill-rule: nonzero; opacity: 1;" transform=" matrix(1 0 0 1 0 0) " stroke-linecap="round" />
	<path d="M 487.58 494.195 l 0.768 2.95 c 0.168 0.647 0.323 1.247 0.432 1.847 h 0.035 c 0.133 -0.588 0.324 -1.211 0.516 -1.834 l 0.947 -2.963 h 0.889 l 0.898 2.902 c 0.217 0.695 0.385 1.307 0.516 1.895 h 0.037 c 0.096 -0.588 0.252 -1.199 0.443 -1.883 l 0.828 -2.914 h 1.043 L 493.061 500 h -0.959 l -0.889 -2.771 c -0.203 -0.647 -0.371 -1.224 -0.516 -1.907 h -0.023 c -0.145 0.695 -0.324 1.295 -0.527 1.92 L 489.211 500 h -0.96 l -1.751 -5.805 H 487.58 z" style="stroke: none; stroke-width: 1; stroke-dasharray: none; stroke-linecap: butt; stroke-linejoin: miter; stroke-miterlimit: 10; fill: rgb(0,0,0); fill-rule: nonzero; opacity: 1;" transform=" matrix(1 0 0 1 0 0) " stroke-linecap="round" />
	<path d="M 496.46 497.289 c 0.024 1.428 0.936 2.016 1.991 2.016 c 0.755 0 1.211 -0.133 1.606 -0.301 l 0.18 0.756 c -0.372 0.168 -1.007 0.36 -1.931 0.36 c -1.787 0 -2.854 -1.176 -2.854 -2.927 s 1.032 -3.13 2.723 -3.13 c 1.895 0 2.398 1.667 2.398 2.734 c 0 0.216 -0.023 0.384 -0.036 0.491 H 496.46 z M 499.555 496.533 c 0.012 -0.671 -0.276 -1.715 -1.464 -1.715 c -1.067 0 -1.535 0.984 -1.619 1.715 H 499.555 z" style="stroke: none; stroke-width: 1; stroke-dasharray: none; stroke-linecap: butt; stroke-linejoin: miter; stroke-miterlimit: 10; fill: rgb(0,0,0); fill-rule: nonzero; opacity: 1;" transform=" matrix(1 0 0 1 0 0) " stroke-linecap="round" />
	<path d="M 501.884 496.006 c 0 -0.684 -0.013 -1.271 -0.049 -1.811 h 0.924 l 0.036 1.139 h 0.048 c 0.264 -0.779 0.899 -1.271 1.607 -1.271 c 0.12 0 0.204 0.012 0.3 0.036 v 0.995 c -0.108 -0.024 -0.216 -0.036 -0.36 -0.036 c -0.743 0 -1.271 0.564 -1.415 1.355 c -0.023 0.145 -0.048 0.312 -0.048 0.492 V 500 h -1.043 V 496.006 z" style="stroke: none; stroke-width: 1; stroke-dasharray: none; stroke-linecap: butt; stroke-linejoin: miter; stroke-miterlimit: 10; fill: rgb(0,0,0); fill-rule: nonzero; opacity: 1;" transform=" matrix(1 0 0 1 0 0) " stroke-linecap="round" />
	<path d="M 505.856 496.09 c 0 -0.743 -0.024 -1.343 -0.049 -1.895 h 0.948 l 0.048 0.995 h 0.023 c 0.432 -0.708 1.115 -1.127 2.063 -1.127 c 1.403 0 2.458 1.187 2.458 2.95 c 0 2.087 -1.271 3.118 -2.639 3.118 c -0.768 0 -1.438 -0.336 -1.786 -0.911 h -0.024 v 3.154 h -1.043 V 496.09 z M 506.899 497.637 c 0 0.156 0.024 0.301 0.048 0.432 c 0.192 0.732 0.828 1.236 1.583 1.236 c 1.115 0 1.764 -0.912 1.764 -2.243 c 0 -1.163 -0.612 -2.159 -1.728 -2.159 c -0.72 0 -1.392 0.516 -1.595 1.308 c -0.036 0.132 -0.072 0.288 -0.072 0.432 V 497.637 z" style="stroke: none; stroke-width: 1; stroke-dasharray: none; stroke-linecap: butt; stroke-linejoin: miter; stroke-miterlimit: 10; fill: rgb(0,0,0); fill-rule: nonzero; opacity: 1;" transform=" matrix(1 0 0 1 0 0) " stroke-linecap="round" />
	<path d="M 517.937 497.05 c 0 2.146 -1.487 3.082 -2.891 3.082 c -1.571 0 -2.782 -1.151 -2.782 -2.986 c 0 -1.942 1.271 -3.082 2.878 -3.082 C 516.809 494.063 517.937 495.274 517.937 497.05 z M 513.331 497.109 c 0 1.271 0.731 2.23 1.763 2.23 c 1.008 0 1.763 -0.947 1.763 -2.254 c 0 -0.984 -0.491 -2.23 -1.738 -2.23 C 513.87 494.855 513.331 496.006 513.331 497.109 z" style="stroke: none; stroke-width: 1; stroke-dasharray: none; stroke-linecap: butt; stroke-linejoin: miter; stroke-miterlimit: 10; fill: rgb(0,0,0); fill-rule: nonzero; opacity: 1;" transform=" matrix(1 0 0 1 0 0) " stroke-linecap="round" />
	<path d="M 520.447 492.564 c 0.012 0.359 -0.252 0.647 -0.672 0.647 c -0.371 0 -0.636 -0.288 -0.636 -0.647 c 0 -0.372 0.276 -0.66 0.66 -0.66 C 520.195 491.904 520.447 492.192 520.447 492.564 z M 519.272 500 v -5.805 h 1.055 V 500 H 519.272 z" style="stroke: none; stroke-width: 1; stroke-dasharray: none; stroke-linecap: butt; stroke-linejoin: miter; stroke-miterlimit: 10; fill: rgb(0,0,0); fill-rule: nonzero; opacity: 1;" transform=" matrix(1 0 0 1 0 0) " stroke-linecap="round" />
	<path d="M 522.08 495.766 c 0 -0.6 -0.013 -1.091 -0.049 -1.57 h 0.936 l 0.061 0.959 h 0.023 c 0.288 -0.551 0.96 -1.091 1.919 -1.091 c 0.804 0 2.051 0.479 2.051 2.47 V 500 h -1.055 v -3.346 c 0 -0.936 -0.349 -1.715 -1.344 -1.715 c -0.695 0 -1.235 0.491 -1.415 1.078 c -0.048 0.133 -0.072 0.313 -0.072 0.492 V 500 h -1.055 V 495.766 z" style="stroke: none; stroke-width: 1; stroke-dasharray: none; stroke-linecap: butt; stroke-linejoin: miter; stroke-miterlimit: 10; fill: rgb(0,0,0); fill-rule: nonzero; opacity: 1;" transform=" matrix(1 0 0 1 0 0) " stroke-linecap="round" />
	<path d="M 529.962 492.528 v 1.667 h 1.512 v 0.803 h -1.512 v 3.131 c 0 0.72 0.204 1.127 0.792 1.127 c 0.275 0 0.479 -0.035 0.611 -0.071 l 0.048 0.792 c -0.203 0.083 -0.527 0.144 -0.936 0.144 c -0.491 0 -0.887 -0.156 -1.139 -0.444 c -0.3 -0.312 -0.408 -0.827 -0.408 -1.511 v -3.167 h -0.899 v -0.803 h 0.899 v -1.392 L 529.962 492.528 z" style="stroke: none; stroke-width: 1; stroke-dasharray: none; stroke-linecap: butt; stroke-linejoin: miter; stroke-miterlimit: 10; fill: rgb(0,0,0); fill-rule: nonzero; opacity: 1;" transform=" matrix(1 0 0 1 0 0) " stroke-linecap="round" />
	<path d="M 535.243 492.012 c 0.504 -0.084 1.164 -0.155 2.003 -0.155 c 1.032 0 1.787 0.239 2.268 0.672 c 0.443 0.384 0.707 0.972 0.707 1.69 c 0 0.732 -0.216 1.308 -0.624 1.728 c -0.551 0.587 -1.451 0.888 -2.47 0.888 c -0.313 0 -0.601 -0.012 -0.84 -0.072 V 500 h -1.044 V 492.012 z M 536.287 495.91 c 0.228 0.061 0.516 0.084 0.863 0.084 c 1.26 0 2.027 -0.611 2.027 -1.727 c 0 -1.068 -0.756 -1.584 -1.907 -1.584 c -0.456 0 -0.804 0.037 -0.983 0.084 V 495.91 z" style="stroke: none; stroke-width: 1; stroke-dasharray: none; stroke-linecap: butt; stroke-linejoin: miter; stroke-miterlimit: 10; fill: rgb(0,0,0); fill-rule: nonzero; opacity: 1;" transform=" matrix(1 0 0 1 0 0) " stroke-linecap="round" />
	<path d="M 541.399 496.006 c 0 -0.684 -0.013 -1.271 -0.049 -1.811 h 0.924 l 0.036 1.139 h 0.048 c 0.264 -0.779 0.899 -1.271 1.607 -1.271 c 0.12 0 0.204 0.012 0.3 0.036 v 0.995 c -0.108 -0.024 -0.216 -0.036 -0.36 -0.036 c -0.743 0 -1.271 0.564 -1.415 1.355 c -0.023 0.145 -0.048 0.312 -0.048 0.492 V 500 h -1.043 V 496.006 z" style="stroke: none; stroke-width: 1; stroke-dasharray: none; stroke-linecap: butt; stroke-linejoin: miter; stroke-miterlimit: 10; fill: rgb(0,0,0); fill-rule: nonzero; opacity: 1;" transform=" matrix(1 0 0 1 0 0) " stroke-linecap="round" />
	<path d="M 545.791 497.289 c 0.024 1.428 0.936 2.016 1.991 2.016 c 0.756 0 1.211 -0.133 1.607 -0.301 l 0.18 0.756 c -0.372 0.168 -1.008 0.36 -1.931 0.36 c -1.787 0 -2.854 -1.176 -2.854 -2.927 s 1.031 -3.13 2.723 -3.13 c 1.895 0 2.398 1.667 2.398 2.734 c 0 0.216 -0.024 0.384 -0.036 0.491 H 545.791 z M 548.886 496.533 c 0.012 -0.671 -0.276 -1.715 -1.463 -1.715 c -1.067 0 -1.535 0.984 -1.619 1.715 H 548.886 z" style="stroke: none; stroke-width: 1; stroke-dasharray: none; stroke-linecap: butt; stroke-linejoin: miter; stroke-miterlimit: 10; fill: rgb(0,0,0); fill-rule: nonzero; opacity: 1;" transform=" matrix(1 0 0 1 0 0) " stroke-linecap="round" />
	<path d="M 551.071 498.92 c 0.312 0.205 0.863 0.42 1.392 0.42 c 0.768 0 1.127 -0.383 1.127 -0.863 c 0 -0.504 -0.3 -0.779 -1.079 -1.067 c -1.044 -0.372 -1.535 -0.947 -1.535 -1.644 c 0 -0.935 0.756 -1.702 2.003 -1.702 c 0.588 0 1.104 0.167 1.427 0.359 l -0.264 0.768 c -0.228 -0.144 -0.647 -0.335 -1.188 -0.335 c -0.623 0 -0.971 0.359 -0.971 0.791 c 0 0.479 0.348 0.695 1.103 0.983 c 1.008 0.384 1.523 0.888 1.523 1.751 c 0 1.02 -0.791 1.739 -2.171 1.739 c -0.636 0 -1.223 -0.156 -1.631 -0.396 L 551.071 498.92 z" style="stroke: none; stroke-width: 1; stroke-dasharray: none; stroke-linecap: butt; stroke-linejoin: miter; stroke-miterlimit: 10; fill: rgb(0,0,0); fill-rule: nonzero; opacity: 1;" transform=" matrix(1 0 0 1 0 0) " stroke-linecap="round" />
	<path d="M 556.555 497.289 c 0.024 1.428 0.936 2.016 1.991 2.016 c 0.756 0 1.211 -0.133 1.607 -0.301 l 0.18 0.756 c -0.372 0.168 -1.008 0.36 -1.931 0.36 c -1.787 0 -2.854 -1.176 -2.854 -2.927 s 1.031 -3.13 2.723 -3.13 c 1.895 0 2.398 1.667 2.398 2.734 c 0 0.216 -0.024 0.384 -0.036 0.491 H 556.555 z M 559.649 496.533 c 0.012 -0.671 -0.276 -1.715 -1.463 -1.715 c -1.067 0 -1.535 0.984 -1.619 1.715 H 559.649 z" style="stroke: none; stroke-width: 1; stroke-dasharray: none; stroke-linecap: butt; stroke-linejoin: miter; stroke-miterlimit: 10; fill: rgb(0,0,0); fill-rule: nonzero; opacity: 1;" transform=" matrix(1 0 0 1 0 0) " stroke-linecap="round" />
	<path d="M 561.979 495.766 c 0 -0.6 -0.013 -1.091 -0.049 -1.57 h 0.936 l 0.061 0.959 h 0.023 c 0.288 -0.551 0.96 -1.091 1.919 -1.091 c 0.804 0 2.051 0.479 2.051 2.47 V 500 h -1.055 v -3.346 c 0 -0.936 -0.348 -1.715 -1.344 -1.715 c -0.695 0 -1.235 0.491 -1.415 1.078 c -0.048 0.133 -0.072 0.313 -0.072 0.492 V 500 h -1.055 V 495.766 z" style="stroke: none; stroke-width: 1; stroke-dasharray: none; stroke-linecap: butt; stroke-linejoin: miter; stroke-miterlimit: 10; fill: rgb(0,0,0); fill-rule: nonzero; opacity: 1;" transform=" matrix(1 0 0 1 0 0) " stroke-linecap="round" />
	<path d="M 569.862 492.528 v 1.667 h 1.512 v 0.803 h -1.512 v 3.131 c 0 0.72 0.204 1.127 0.792 1.127 c 0.275 0 0.479 -0.035 0.611 -0.071 l 0.048 0.792 c -0.203 0.083 -0.527 0.144 -0.936 0.144 c -0.491 0 -0.887 -0.156 -1.139 -0.444 c -0.3 -0.312 -0.408 -0.827 -0.408 -1.511 v -3.167 h -0.899 v -0.803 h 0.899 v -1.392 L 569.862 492.528 z" style="stroke: none; stroke-width: 1; stroke-dasharray: none; stroke-linecap: butt; stroke-linejoin: miter; stroke-miterlimit: 10; fill: rgb(0,0,0); fill-rule: nonzero; opacity: 1;" transform=" matrix(1 0 0 1 0 0) " stroke-linecap="round" />
	<path d="M 575.777 500 l -0.084 -0.731 h -0.036 c -0.323 0.456 -0.947 0.863 -1.775 0.863 c -1.175 0 -1.774 -0.827 -1.774 -1.667 c 0 -1.403 1.247 -2.171 3.49 -2.158 v -0.121 c 0 -0.479 -0.132 -1.343 -1.319 -1.343 c -0.54 0 -1.104 0.168 -1.512 0.432 l -0.239 -0.695 c 0.479 -0.312 1.175 -0.516 1.906 -0.516 c 1.775 0 2.207 1.211 2.207 2.374 v 2.172 c 0 0.503 0.024 0.994 0.096 1.391 H 575.777 z M 575.621 497.037 c -1.151 -0.023 -2.458 0.181 -2.458 1.308 c 0 0.684 0.455 1.008 0.995 1.008 c 0.756 0 1.235 -0.479 1.403 -0.972 c 0.036 -0.107 0.06 -0.229 0.06 -0.336 V 497.037 z" style="stroke: none; stroke-width: 1; stroke-dasharray: none; stroke-linecap: butt; stroke-linejoin: miter; stroke-miterlimit: 10; fill: rgb(0,0,0); fill-rule: nonzero; opacity: 1;" transform=" matrix(1 0 0 1 0 0) " stroke-linecap="round" />
	<path d="M 579.57 492.528 v 1.667 h 1.512 v 0.803 h -1.512 v 3.131 c 0 0.72 0.204 1.127 0.792 1.127 c 0.275 0 0.479 -0.035 0.611 -0.071 l 0.048 0.792 c -0.203 0.083 -0.527 0.144 -0.936 0.144 c -0.491 0 -0.887 -0.156 -1.139 -0.444 c -0.3 -0.312 -0.408 -0.827 -0.408 -1.511 v -3.167 h -0.899 v -0.803 h 0.899 v -1.392 L 579.57 492.528 z" style="stroke: none; stroke-width: 1; stroke-dasharray: none; stroke-linecap: butt; stroke-linejoin: miter; stroke-miterlimit: 10; fill: rgb(0,0,0); fill-rule: nonzero; opacity: 1;" transform=" matrix(1 0 0 1 0 0) " stroke-linecap="round" />
	<path d="M 583.446 492.564 c 0.012 0.359 -0.252 0.647 -0.672 0.647 c -0.371 0 -0.636 -0.288 -0.636 -0.647 c 0 -0.372 0.276 -0.66 0.66 -0.66 C 583.194 491.904 583.446 492.192 583.446 492.564 z M 582.271 500 v -5.805 h 1.055 V 500 H 582.271 z" style="stroke: none; stroke-width: 1; stroke-dasharray: none; stroke-linecap: butt; stroke-linejoin: miter; stroke-miterlimit: 10; fill: rgb(0,0,0); fill-rule: nonzero; opacity: 1;" transform=" matrix(1 0 0 1 0 0) " stroke-linecap="round" />
	<path d="M 590.332 497.05 c 0 2.146 -1.487 3.082 -2.891 3.082 c -1.571 0 -2.782 -1.151 -2.782 -2.986 c 0 -1.942 1.271 -3.082 2.878 -3.082 C 589.204 494.063 590.332 495.274 590.332 497.05 z M 585.727 497.109 c 0 1.271 0.731 2.23 1.763 2.23 c 1.008 0 1.763 -0.947 1.763 -2.254 c 0 -0.984 -0.491 -2.23 -1.738 -2.23 C 586.266 494.855 585.727 496.006 585.727 497.109 z" style="stroke: none; stroke-width: 1; stroke-dasharray: none; stroke-linecap: butt; stroke-linejoin: miter; stroke-miterlimit: 10; fill: rgb(0,0,0); fill-rule: nonzero; opacity: 1;" transform=" matrix(1 0 0 1 0 0) " stroke-linecap="round" />
	<path d="M 591.667 495.766 c 0 -0.6 -0.013 -1.091 -0.049 -1.57 h 0.936 l 0.061 0.959 h 0.023 c 0.288 -0.551 0.96 -1.091 1.919 -1.091 c 0.804 0 2.051 0.479 2.051 2.47 V 500 h -1.055 v -3.346 c 0 -0.936 -0.348 -1.715 -1.344 -1.715 c -0.695 0 -1.235 0.491 -1.415 1.078 c -0.048 0.133 -0.072 0.313 -0.072 0.492 V 500 h -1.055 V 495.766 z" style="stroke: none; stroke-width: 1; stroke-dasharray: none; stroke-linecap: butt; stroke-linejoin: miter; stroke-miterlimit: 10; fill: rgb(0,0,0); fill-rule: nonzero; opacity: 1;" transform=" matrix(1 0 0 1 0 0) " stroke-linecap="round" />
</g>
</svg>