<?xml version="1.0" encoding="UTF-8"?>
<svg id="Layer_2" data-name="Layer 2" xmlns="http://www.w3.org/2000/svg" viewBox="0 0 909.89 653.96">
  <defs>
    <style>
      .cls-1 {
        fill: #473b08;
      }

      .cls-2 {
        fill: #030201;
      }

      .cls-3 {
        fill: #cb2a13;
      }

      .cls-4 {
        fill: #fdc24c;
      }

      .cls-5 {
        fill: #fefefd;
      }
    </style>
  </defs>
  <g id="Layer_1-2" data-name="Layer 1">
    <g>
      <path class="cls-1" d="M633.41,444.16c2.11-5.81,4.8-11.49,6.2-17.47,3.66-15.67,23.32-20.65,33.97-8.89,.33,.36,.8,.59,1.69,1.21,2.72-4.49,5.59-8.76,7.99-13.29,7.95-14.96,46.23-88.65,57.67-110.41,2.58-4.9,5.25-9.83,8.52-14.28,4.41-6.02,10.77-8.84,18.18-7.37,10.51,2.08,21.73,3.03,31.13,7.6,12.93,6.29,25.59,14.21,36.32,23.74,28.67,25.46,48.76,57.47,65.33,91.78,3.14,6.51,6.4,13.06,8.5,19.93,2.65,8.67-.21,16.4-6.76,22.59-8.69,8.21-88.4,82.92-100.55,94-9.14,8.33-22.26,6.8-29.46-3.43-12.68-18.03-39.76-57.06-41.15-58.97-5.17,6.71-10.17,13.02-14.97,19.47-6.93,9.3-13.68,18.73-20.59,28.04-2.68,3.62-5.72,6.98-8.36,10.63-6,8.28-13.71,11.26-23.58,8.1-.63-.2-1.32-.19-2.25-.31l-13.94,30.82c-1.5,3.31-2.83,6.7-4.56,9.88-6.45,11.82-23.66,13.12-32.09,2.5-.86-1.08-1.72-2.15-2.74-3.43-16.1,19.16-35.93,33.38-57.65,44.78-22.94,12.03-47.27,20.11-72.89,24.99-20.84,3.97-41.78,6.05-62.82,6.95-19.89,.86-39.88,.9-59.77-.04-16.2-.76-32.39-2.92-48.42-5.51-18.78-3.03-37.64-6.2-55.96-11.17s-35.23-11.3-52.3-18.32c-22.44-9.23-42.48-22.78-60.49-38.98-25.02-22.51-39.26-50.39-41.54-84.52-2.31-34.7,2.6-68.33,14.37-100.69,5.63-15.47,14.15-30.06,22.66-44.26,9.58-15.99,20.63-31.1,32.04-48.09-7.74-7.35-16.93-15.31-25.23-24.1-21.67-22.95-43.15-46.09-64.34-69.48-16.34-18.03-30.49-37.8-42.83-58.77C15.54,120.17,5.07,88.53,.63,55c-.96-7.27-.8-14.94,.36-22.19,1.63-10.18,11.84-16.38,21.95-13.91,25.53,6.23,49.82,15.8,72.87,28.43,27.46,15.05,51.64,34.28,73.05,57.13,16.78,17.91,32.07,36.99,45.38,57.56,15.82,24.45,31.13,49.24,46.48,73.99,1.66,2.68,3.08,2.34,5.48,1.64,13.3-3.9,26.51-8.2,40.01-11.24,9.71-2.18,19.79-3.24,29.75-3.67,13.97-.6,28.05-1.01,41.97,.04,20.56,1.54,40.84,5.41,60.63,11.42,9.06,2.75,18.06,5.71,27.5,8.7,5.65-7.04,11.5-14.54,17.57-21.84,21.61-26,43.06-52.14,65.05-77.82,12.73-14.86,25.72-29.61,39.76-43.19,25.36-24.52,52.7-46.76,83.76-63.78,21.23-11.64,42.9-22.5,64.61-33.22,11.5-5.68,24.63-3.23,29.95,5.71,2.43,4.08,4.03,10.19,2.92,14.6-7.8,30.97-18.76,60.81-32.58,89.7-17.51,36.62-37.85,71.47-62.42,103.71-12.69,16.66-26.3,32.75-40.73,47.92-16.22,17.07-33.79,32.86-50.88,49.08-2.87,2.73-6.3,4.86-10.41,7.99,31.99,34.88,50.47,76.27,60.72,122.41Z"/>
      <path class="cls-1" d="M787.88,519.98c3.19-2.89,5.91-5.28,8.56-7.76l89.63-83.94c5.81-5.42,5.95-5.32,2.59-12.63-14.23-30.9-31.09-60.17-54.4-85.2-17.16-18.42-36.38-33.72-62.47-37.6-5.17-.77-8.37-.33-11.1,4.99-20.7,40.29-73.83,141.61-79.66,152.6l-22.65-20.55c-9.11,26.97-18.82,52.49-26.58,78.65l1.9,.85,4.7-7.34-2.1,11.45,1.5,.47,3.63-4.06v9.02l4.1-3.89-.73,7.59,1.79,.53,11.3-24.14,12.56,21.01,61.25-81.42,56.18,81.34Z"/>
      <path class="cls-4" d="M594.54,386.7c-6.97-15-16.29-28.56-26.52-41.49-6.54-8.26-13.28-16.36-20.09-24.72,.59-.82,1.09-1.75,1.8-2.45,3.97-3.88,7.75-8.01,12.05-11.49,44.58-36.02,82.86-77.82,115.13-125.17,4.06-5.95,8.97-11.61,8.49-19.48-1.65-27.05-3.84-54.14-11.69-80.27-1.89-6.28-6.05-11.87-9.17-17.77-1.4,.47-3.05,.6-4.17,1.45-12.75,9.58-25.77,18.85-38.04,29.01-22.39,18.53-42.12,39.83-60.84,61.98-24.42,28.89-48.34,58.2-72.37,87.43-6.13,7.46-11.84,15.28-17.48,22.59-7.39-3.16-14.12-6.36-21.07-8.94-26.32-9.74-53.67-14.23-81.57-16.52-18.14-1.49-36.12-.35-53.68,3.14-19.1,3.8-37.78,9.89-56.48,15.52-4.53,1.36-6.39,.55-8.42-3.4-19.31-37.45-42.58-72.4-67.61-106.19-21.53-29.07-46.45-54.78-76.81-74.8-2.77-1.83-6.12-2.79-9.2-4.16-7.19,7.59-7.97,17.59-9.27,27.03-3.92,28.41-6.55,56.96-5.47,85.71,.98,2.31,1.47,5.05,3.02,6.87,32.55,38.18,67.47,74.11,103.49,109,1.32,1.28,2.5,2.71,2.79,3.03-10.55,12.88-21.38,24.63-30.51,37.58-15.09,21.4-27.88,44.21-35.91,69.37-5.98,18.73-8.98,38.03-10.21,57.59-.36,5.78,.5,11.65,.8,17.47,2.61-5.4,4.67-11.15,7.94-16.11,6.24-9.45,18-13.94,28.61-10.45,31.65,10.43,51.15,31.98,58.35,64.8,3.41,15.55,1.7,30.24-4.92,44.51-4.59,9.91-10.5,18.45-22.52,20.06,.94,.95,1.75,2.1,2.84,2.82,15.45,10.22,32.38,17.58,50.11,22.21,25.38,6.63,51.1,12.1,76.87,17.07,13.89,2.68,28.17,4.48,42.29,4.56,28.56,.17,57.19-.21,85.68-2.02,30.38-1.94,59.87-9,87.78-21.56,4.68-2.11,8.74-5.59,13.09-8.44-14.2,.23-27.66-2.41-36.93-14.12-15.24-19.23-21.49-40.87-14.67-65.26,6.53-23.34,21.58-40.13,40.68-54.11,9-6.59,19.04-10.56,29.7-11.06,9.12-.43,17.95,3.23,25.21,9.45,15.01,12.86,22.27,29.48,22.37,48.96,.04,8.03-2.05,16.07-3.17,24.1-.21,1.53-.47,3.05-.71,4.58,1.91-1.73,4.51-3.09,5.63-5.24,7.46-14.31,9.15-29.88,9.49-45.75,.33-15.35-3.01-30.2-5.73-45.12-3.9-21.34-9.81-42.11-18.96-61.82Zm-324.04,49.46c-4.13,9.4-8.9,18.53-17.24,25.01-2.55,1.98-5.58,3.38-8.52,4.79-6.43,3.07-11.88,.48-16.55-3.73-8.52-7.67-10.81-18.27-12.51-28.95-.82-5.11-1-10.32-1.37-14.35,1.02-24.67,6.07-46.84,20.89-65.74,3.04-3.87,7.17-7.08,11.31-9.83,6.52-4.34,15.38-2.16,21.39,4.67,6.56,7.45,9.58,16.64,10.77,26.08,2.68,21.29,.56,42.2-8.17,62.06Zm77.8,28.55c-4.98,4.27-10.35,8.09-15.67,11.93-.79,.57-2.49,.86-3.21,.4-7.36-4.68-14.27-9.87-17.43-18.52-.22-.6-.13-1.3-.23-2.47,13.38-2.04,26.44-2.61,40.39,1.79-1.42,2.64-2.1,5.37-3.85,6.87Zm104.13,3.45c-19.99,20.35-41.63,11.91-49.25-12.73-9.61-31.07-3.07-59.95,15.8-86.04,3.08-4.26,7.42-7.83,11.76-10.9,15.73-11.13,30.09-4.28,37.94,9.7,5.64,10.05,7.7,19.15,8.48,37.81-1.39,21.47-7.09,44.21-24.73,62.16Zm433.58-40.1c-29.91,27.94-94.99,88.81-98.19,91.7l-56.18-81.34-61.25,81.42-12.56-21.01-11.3,24.14-1.79-.53,.73-7.59-4.1,3.89v-9.02l-3.63,4.06-1.5-.47,2.1-11.45-4.7,7.34-1.9-.85c7.77-26.16,17.48-51.68,26.58-78.65l22.65,20.55c5.83-11,58.96-112.32,79.66-152.6,2.73-5.31,5.92-5.76,11.1-4.99,26.09,3.88,45.31,19.17,62.47,37.6,23.31,25.03,40.17,54.3,54.4,85.2,3.37,7.32,3.22,7.21-2.59,12.63Z"/>
      <path class="cls-3" d="M541.7,602.31c-14.2,.23-27.66-2.41-36.93-14.12-15.24-19.23-21.49-40.87-14.67-65.26,6.53-23.34,21.58-40.13,40.68-54.11,9-6.59,19.04-10.56,29.7-11.06,9.12-.43,17.95,3.23,25.21,9.45,15.01,12.86,22.27,29.48,22.37,48.96,.04,8.03-2.05,16.07-3.17,24.1-.21,1.53-.47,3.05-.71,4.58-6.11,14.64-16.74,25.84-28.5,35.83-10.26,8.71-21.08,16.91-33.98,21.64Zm-415.27-67.91c11.65,20.86,29.13,35.81,48.53,48.87,2.53,1.7,5.38,2.93,8.08,4.38,12.02-1.61,17.93-10.15,22.52-20.06,6.61-14.26,8.33-28.95,4.92-44.51-7.2-32.82-26.7-54.37-58.35-64.8-10.6-3.49-22.37,.99-28.61,10.45-3.27,4.96-5.33,10.71-7.94,16.11-.57,17.43,2.21,34.08,10.85,49.55Z"/>
      <path class="cls-2" d="M96.86,71.2c-7.19,7.59-7.97,17.59-9.27,27.03-3.92,28.41-6.55,56.96-5.47,85.71-2.05-1.99-4.52-3.69-6.07-6.01-10.17-15.26-20.64-30.35-30.06-46.07-13.69-22.84-20.13-48.34-24.9-74.27-1.18-6.41-1.74-12.93-2.68-20.14,27.94,8.69,54.51,18.11,78.44,33.75Zm592.5,89.02c14.64-23.23,26.47-47.93,37.84-72.88,2.64-5.79,5.72-11.4,8-17.33,1.97-5.12,2.99-10.59,4.59-15.86,3.44-11.35,6.97-22.67,10.84-35.19-30.98,12.77-59.08,27.84-86.03,45.13,3.12,5.91,7.28,11.5,9.17,17.77,7.85,26.13,9.57,53.25,11.69,80.27,3.13,3.25,3.27-.91,3.9-1.92Zm-220.63,208.19c-7.85-13.98-22.2-20.83-37.94-9.7-4.34,3.07-8.68,6.64-11.76,10.9-18.87,26.09-25.41,54.97-15.8,86.04,7.62,24.64,29.26,33.09,49.25,12.73,17.63-17.95,23.34-40.69,24.73-62.16-.78-18.66-2.84-27.76-8.48-37.81Zm-50.02,15.8c-.1-7.69,5.93-14,13.55-14.19,7.72-.19,14.35,6.31,14.32,14.05s-6.26,13.79-13.92,13.84-13.86-5.95-13.95-13.69Zm-202.98,49.28c1.71,10.68,3.99,21.28,12.51,28.95,4.67,4.21,10.12,6.8,16.55,3.73,2.94-1.4,5.97-2.81,8.52-4.79,8.35-6.48,13.11-15.61,17.24-25.01,8.73-19.86,10.85-40.76,8.17-62.06-1.19-9.44-4.2-18.63-10.77-26.08-6.01-6.83-14.87-9.01-21.39-4.67-4.14,2.75-8.27,5.96-11.31,9.83-14.83,18.89-19.88,41.06-20.89,65.74,.37,4.03,.55,9.24,1.37,14.35Zm47.89-50.59c-2.54,.95-6.84,.32-8.94-1.35-4.94-3.93-5.5-9.77-3.75-15.69,1.89-6.38,6.99-10.44,11.87-9.68,5.09,.79,8.85,6.45,8.73,13.84-.39,5.19-2.1,10.7-7.92,12.88Zm48.42,75.84c3.16,8.66,10.07,13.84,17.43,18.52,.72,.46,2.42,.17,3.21-.4,5.32-3.85,10.69-7.67,15.67-11.93,1.74-1.5,2.43-4.23,3.85-6.87-13.95-4.4-27.01-3.83-40.39-1.79,.1,1.17,.02,1.87,.23,2.47Z"/>
      <path class="cls-5" d="M432.66,397.9c-7.75,.04-13.86-5.95-13.95-13.69-.1-7.69,5.93-14,13.55-14.19,7.72-.19,14.35,6.31,14.32,14.05s-6.26,13.79-13.92,13.84Zm-169.85-41.71c-4.89-.76-9.98,3.3-11.87,9.68-1.75,5.92-1.2,11.75,3.75,15.69,2.1,1.67,6.4,2.3,8.94,1.35,5.81-2.17,7.52-7.68,7.92-12.88,.12-7.38-3.63-13.04-8.73-13.84Z"/>
    </g>
  </g>
</svg>